<svg width="80" height="80" viewBox="0 0 80 80" fill="none" xmlns="http://www.w3.org/2000/svg">
<g clip-path="url(#clip0)">
<path d="M19.9991 16.667H6.66602V13.3333H18.3323V1.66699H21.666V15.0001C21.666 15.9205 20.9196 16.667 19.9991 16.667Z" fill="#0A194C"/>
<path d="M55 80H13.3331C8.73352 79.9945 5.00549 76.2665 5 71.6669V15C5 14.5581 5.17578 14.1339 5.48828 13.8214L18.8214 0.488281C19.1339 0.175781 19.5581 0 20 0H56.6669C61.2665 0.00549316 64.9945 3.73352 65 8.33313V13.3331H61.6669V8.33313C61.6669 5.5719 59.4281 3.33313 56.6669 3.33313H20.6897L8.33313 15.6897V71.6669C8.33313 74.4281 10.5719 76.6669 13.3331 76.6669H55C57.7612 76.6669 60 74.4281 60 71.6669V66.6669H63.3331V71.6669C63.3276 76.2665 59.6002 79.9945 55 80Z" fill="#0A194C"/>
<path d="M56.6677 63.3333C43.7808 63.3333 33.334 52.8865 33.334 40.0001C33.334 27.1138 43.7808 16.667 56.6677 16.667C69.5541 16.667 80.0009 27.1138 80.0009 40.0001C79.9868 52.881 69.5486 63.3198 56.6677 63.3333ZM56.6677 20.0001C45.6216 20.0001 36.6677 28.9546 36.6677 40.0001C36.6677 51.0457 45.6216 60.0001 56.6677 60.0001C67.7133 60.0001 76.6677 51.0457 76.6677 40.0001C76.6555 28.9595 67.7084 20.0123 56.6677 20.0001Z" fill="#27DB9B"/>
<path d="M56.6669 56.6667C47.4622 56.6667 40 49.2046 40 39.9999C40 30.7952 47.4622 23.333 56.6669 23.333C65.8716 23.333 73.3331 30.7952 73.3331 39.9999C73.3234 49.2003 65.8673 56.6564 56.6669 56.6667ZM56.6669 26.6667C49.303 26.6667 43.3331 32.636 43.3331 39.9999C43.3331 47.3638 49.303 53.333 56.6669 53.333C64.0308 53.333 70 47.3638 70 39.9999C69.9915 32.6396 64.0271 26.6747 56.6669 26.6667Z" fill="#0A194C"/>
<path d="M56.666 50C51.1429 50 46.666 45.5231 46.666 40C46.666 34.4769 51.1429 30 56.666 30C62.1885 30 66.666 34.4769 66.666 40C66.6605 45.5206 62.1866 49.9945 56.666 50ZM56.666 33.3331C52.9838 33.3331 49.9991 36.3184 49.9991 40C49.9991 43.6816 52.9838 46.6669 56.666 46.6669C60.3477 46.6669 63.3323 43.6816 63.3323 40C63.3323 36.3184 60.3477 33.3331 56.666 33.3331Z" fill="#27DB9B"/>
<path d="M18.332 38.333H56.6658V41.6667H18.332V38.333Z" fill="#0A194C"/>
<path d="M23.3323 48.3333H18.3323C17.4119 48.3333 16.666 47.5874 16.666 46.667V33.3333C16.666 32.4128 17.4119 31.667 18.3323 31.667H23.3323C23.7742 31.667 24.1984 31.8428 24.5109 32.1553L31.1777 38.8215C31.8284 39.4728 31.8284 40.5275 31.1777 41.1787L24.5109 47.845C24.1984 48.1575 23.7742 48.3333 23.3323 48.3333ZM19.9991 45.0001H22.6426L27.6426 40.0001L22.6426 35.0001H19.9991V45.0001Z" fill="#0A194C"/>
<path d="M19.9991 73.3331H16.666C13.9042 73.3331 11.666 71.095 11.666 68.3331V65H14.9991V68.3331C14.9991 69.2535 15.7456 70 16.666 70H19.9991V73.3331Z" fill="#27DB9B"/>
<path d="M23.334 70H26.6677V73.3331H23.334V70Z" fill="#27DB9B"/>
</g>
<defs>
<clipPath id="clip0">
<rect width="80" height="80" fill="white"/>
</clipPath>
</defs>
</svg>
