<svg width="80" height="80" viewBox="0 0 80 80" fill="none" xmlns="http://www.w3.org/2000/svg">
<g clip-path="url(#clip0)">
<path d="M1.66602 56.667H26.666V60.0001H1.66602V56.667Z" fill="#0A194C"/>
<path d="M20 70H23.3331V78.3331H20V70Z" fill="#0A194C"/>
<path d="M40 68.333H43.3331V78.333H40V68.333Z" fill="#0A194C"/>
<path d="M58.3331 70H5C2.23877 70 0 67.7612 0 65V25C0 22.2388 2.23877 20 5 20H26.6669V23.3331H5C4.07959 23.3331 3.33313 24.0796 3.33313 25V65C3.33313 65.9204 4.07959 66.6669 5 66.6669H58.3331C59.2535 66.6669 60 65.9204 60 65V63.3331H63.3331V65C63.3331 67.7612 61.095 70 58.3331 70Z" fill="#0A194C"/>
<path d="M16.666 76.667H46.666V80.0001H16.666V76.667Z" fill="#0A194C"/>
<path d="M78.3323 13.3333H68.3323C67.4119 13.3333 66.666 12.5874 66.666 11.667V1.66699H69.9991V10.0001H78.3323V13.3333Z" fill="#27DB9B"/>
<path d="M45.4888 39.5116L38.822 32.8447C38.1713 32.1941 38.1713 31.1388 38.822 30.4882L45.4888 23.8213L47.8454 26.1785L42.3571 31.6667L47.8454 37.155L45.4888 39.5116Z" fill="#27DB9B"/>
<path d="M64.5109 39.5116L62.1543 37.155L67.6426 31.6667L62.1543 26.1785L64.5109 23.8213L71.1777 30.4882C71.8284 31.1388 71.8284 32.1941 71.1777 32.8447L64.5109 39.5116Z" fill="#27DB9B"/>
<path d="M50.1758 37.588L56.842 24.2549L59.8236 25.7454L53.1573 39.0785L50.1758 37.588Z" fill="#0A194C"/>
<path d="M9.99915 35.0001H6.66602V31.667C6.66602 28.9052 8.90417 26.667 11.666 26.667H14.9991V30.0001H11.666C10.7456 30.0001 9.99915 30.7466 9.99915 31.667V35.0001Z" fill="#27DB9B"/>
<path d="M6.66602 38.333H9.99915V41.6667H6.66602V38.333Z" fill="#27DB9B"/>
<path d="M75 60H35C32.2388 60 30 57.7612 30 55V5C30 2.23877 32.2388 0 35 0H68.3331C68.775 0 69.1992 0.175781 69.5117 0.488281L79.5117 10.4883C79.8242 10.8008 80 11.225 80 11.6669V55C80 57.7612 77.7612 60 75 60ZM35 3.33313C34.0796 3.33313 33.3331 4.07959 33.3331 5V55C33.3331 55.9204 34.0796 56.6669 35 56.6669H75C75.9204 56.6669 76.6669 55.9204 76.6669 55V12.3566L67.6434 3.33313H35Z" fill="#27DB9B"/>
</g>
<defs>
<clipPath id="clip0">
<rect width="80" height="80" fill="white"/>
</clipPath>
</defs>
</svg>
