<svg width="290" height="88" viewBox="0 0 290 88" fill="none" xmlns="http://www.w3.org/2000/svg">
<rect width="289.999" height="88" fill="black" fill-opacity="0"/>
<rect width="87.542" height="88" fill="black" fill-opacity="0"/>
<path d="M44.6575 0C19.9938 0 0 19.6995 0 44C0 68.3005 19.9938 88 44.6575 88C64.9814 88 82.1342 74.6232 87.5414 56.318C70.1262 51.5625 61.4041 58.7812 58.2037 61.4904C54.4467 64.3195 49.7513 66 44.6575 66C32.3257 66 22.3288 56.1503 22.3288 44C22.3288 31.8497 32.3257 22 44.6575 22C49.7513 22 54.4467 23.6805 58.2037 26.5096C61.4041 28.875 70.1262 36.4375 87.542 31.684C82.1355 13.3778 64.9821 0 44.6575 0Z" fill="#27DB9B"/>
<ellipse opacity="0.3" cx="44.6611" cy="44" rx="33.4931" ry="33" fill="white"/>
<path d="M130.487 49.2635C129.728 50.0995 127.584 51.8155 124.056 51.8155C120.171 51.8155 117.09 48.7355 117.09 44.3795C117.09 39.5835 120.439 36.9435 124.056 36.9435C126.825 36.9435 128.879 38.5275 129.505 39.0995L131.514 35.1835C130.755 34.4355 127.674 32.5875 123.833 32.5875C117.268 32.5875 111.642 37.6035 111.642 44.3355C111.642 51.6835 117.983 56.0835 123.297 56.0835C128.388 56.0835 131.157 53.8835 132.184 52.8715L130.487 49.2635Z" fill="#04153F"/>
<path d="M159.181 44.3795C159.181 37.9115 153.956 32.5875 147.123 32.5875C140.157 32.5875 134.843 37.8235 134.843 44.3795C134.843 50.8915 140.157 56.0835 146.989 56.0835C153.822 56.0835 159.181 50.8035 159.181 44.3795ZM146.945 51.7715C143.506 51.7715 140.291 48.8235 140.291 44.5115C140.291 39.9355 143.194 36.9435 147.079 36.9435C150.651 36.9435 153.599 39.9355 153.599 44.3795C153.599 48.9115 150.964 51.7715 146.945 51.7715Z" fill="#04153F"/>
<path d="M184.493 55.4235V40.5955C184.493 35.0075 181.814 32.5875 176.902 32.5875C173.418 32.5875 170.828 34.4355 169.667 35.4915V33.2035H164.397V55.4235H169.667V39.7155C170.382 38.7915 172.659 37.1635 174.847 37.1635C178.509 37.1635 179.224 39.4515 179.224 43.3235V55.4235H184.493Z" fill="#04153F"/>
<path d="M208.42 49.2635C207.66 50.0995 205.517 51.8155 201.989 51.8155C198.104 51.8155 195.022 48.7355 195.022 44.3795C195.022 39.5835 198.372 36.9435 201.989 36.9435C204.758 36.9435 206.812 38.5275 207.437 39.0995L209.447 35.1835C208.688 34.4355 205.606 32.5875 201.766 32.5875C195.201 32.5875 189.574 37.6035 189.574 44.3355C189.574 51.6835 195.916 56.0835 201.23 56.0835C206.321 56.0835 209.09 53.8835 210.117 52.8715L208.42 49.2635Z" fill="#04153F"/>
<path d="M229.46 50.5835C228.79 51.0675 227.406 51.7715 225.263 51.7715C222.404 51.7715 219.859 50.5835 219.859 46.1835V33.2035H214.589V47.4595C214.589 53.2235 218.787 56.0835 224.727 56.0835C228.88 56.0835 232.14 55.2035 234.73 53.0035V33.2035H229.46V50.5835Z" fill="#04153F"/>
<path d="M246.422 55.4235V43.0595C246.422 40.2875 247.896 37.4715 250.441 37.4715C251.826 37.4715 252.808 38.0875 253.433 38.5275L255.354 33.6875C254.505 33.2035 253.299 32.5875 251.334 32.5875C248.7 32.5875 246.913 35.5795 246.422 36.6355V33.2035H241.153V55.4235H246.422Z" fill="#04153F"/>
<path d="M264.612 55.4235V33.2035H259.342V55.4235H264.612ZM261.977 29.3755C263.942 29.3755 265.371 28.0115 265.371 26.0315C265.371 24.0955 264.032 22.6875 261.977 22.6875C260.057 22.6875 258.628 24.0515 258.628 26.0315C258.628 28.0115 260.057 29.3755 261.977 29.3755Z" fill="#04153F"/>
<path d="M284.953 50.7595C283.881 51.4195 281.961 51.9475 280.085 51.9475C276.602 51.9475 275.039 50.1435 275.039 48.4275C275.039 46.7115 276.602 44.9955 279.594 44.9955C281.782 44.9955 283.97 45.9635 284.953 46.8875V50.7595ZM289.999 41.4315C289.999 36.0635 288.034 32.5875 280.576 32.5875C276.825 32.5875 274.056 33.4675 272.091 34.3915L273.699 38.1755C274.905 37.6915 277.093 36.8995 279.996 36.8995C283.792 36.8995 284.953 38.2195 284.953 40.3315V42.9275C283.435 41.5195 280.666 40.9475 278.388 40.9475C272.851 40.9475 269.546 44.3355 269.546 48.2075C269.546 51.9475 272.672 56.0835 280.041 56.0835C284.328 56.0835 288.258 54.6755 289.999 53.0915V41.4315Z" fill="#04153F"/>
</svg>
