<svg width="80" height="80" viewBox="0 0 80 80" fill="none" xmlns="http://www.w3.org/2000/svg">
<g clip-path="url(#clip0)">
<path d="M11.668 24.999H15.001V54.998H11.668V24.999Z" fill="#0A194C"/>
<path d="M78.3336 49.9981H75V11.6663C75 10.7459 74.2542 9.99952 73.3338 9.99952H68.334V6.6665H73.3338C76.0949 6.6665 78.3336 8.90458 78.3336 11.6663V49.9981Z" fill="#0A194C"/>
<path d="M23.3359 79.997V76.664C24.2362 76.722 25.1181 76.3894 25.7565 75.751C26.3943 75.1132 26.7269 74.2312 26.669 73.3304V64.9976H30.002V73.3304C30.0551 75.1144 29.3697 76.8404 28.1075 78.1026C26.8459 79.3641 25.1193 80.0495 23.3359 79.997Z" fill="#0A194C"/>
<path d="M53.3355 79.997C51.5515 80.0495 49.8254 79.3641 48.5633 78.1026C47.3017 76.8404 46.6163 75.1144 46.6688 73.3304V64.9976H50.0018V73.3304C49.9445 74.2312 50.2771 75.1126 50.9155 75.7503C51.5533 76.3888 52.4346 76.7214 53.3355 76.664V79.997Z" fill="#0A194C"/>
<path d="M20.002 76.6641H56.6675V79.9971H20.002V76.6641Z" fill="#0A194C"/>
<path d="M74.9993 66.6644H5.00178C2.24064 66.6644 0.00195312 64.4257 0.00195312 61.6646V11.6663C0.00195312 8.90458 2.24064 6.6665 5.00178 6.6665H10.0016V9.99952H5.00178C4.0814 9.99952 3.33558 10.746 3.33558 11.6663V61.6646C3.33558 62.5849 4.0814 63.3308 5.00178 63.3308H74.9993C75.9197 63.3308 76.6661 62.5849 76.6661 61.6646V56.6647H71.6663V53.3311H78.3329C79.2533 53.3311 79.9991 54.0776 79.9991 54.9979V61.6646C79.9991 64.4257 77.761 66.6644 74.9993 66.6644Z" fill="#27DB9B"/>
<path d="M36.668 1.66699H40.001V18.3327H36.668V1.66699Z" fill="#27DB9B"/>
<path d="M23.3359 1.66699H26.6689V18.3327H23.3359V1.66699Z" fill="#27DB9B"/>
<path d="M50 1.66699H53.3336V18.3327H50V1.66699Z" fill="#27DB9B"/>
<path d="M65.0001 19.9993H11.6689C11.1684 19.9993 10.6942 19.7747 10.3774 19.3871C10.0613 18.999 9.93553 18.49 10.0356 17.9992L12.8352 4.01963C13.307 1.68634 15.3547 0.00671364 17.7355 0H58.934C61.3143 0.00671364 63.362 1.68634 63.8338 4.01963L66.6334 17.9992C66.7335 18.49 66.6083 18.999 66.2916 19.3871C65.9748 19.7747 65.5006 19.9993 65.0001 19.9993ZM13.7019 16.6663H62.9671L60.5685 4.66658C60.4104 3.88963 59.7269 3.3324 58.934 3.33301H17.7355C16.9427 3.3324 16.2592 3.88963 16.1005 4.66658L13.7019 16.6663Z" fill="#0A194C"/>
<path d="M18.3354 28.3322C13.7353 28.3267 10.0074 24.5994 10.002 19.9993V18.3325H13.3356V19.9993C13.3356 22.7605 15.5737 24.9992 18.3354 24.9992C21.0965 24.9992 23.3352 22.7605 23.3352 19.9993V18.3325H26.6682V19.9993C26.6627 24.5994 22.9348 28.3267 18.3354 28.3322Z" fill="#0A194C"/>
<path d="M31.6668 28.3322C27.0668 28.3267 23.3395 24.5994 23.334 19.9993V18.3325H26.667V19.9993C26.667 22.7605 28.9057 24.9992 31.6668 24.9992C34.428 24.9992 36.6666 22.7605 36.6666 19.9993V18.3325H39.9997V19.9993C39.9942 24.5994 36.2669 28.3267 31.6668 28.3322Z" fill="#0A194C"/>
<path d="M45.0008 28.3322C40.4014 28.3267 36.6735 24.5994 36.668 19.9993V18.3325H40.001V19.9993C40.001 22.7605 42.2397 24.9992 45.0008 24.9992C47.7625 24.9992 50.0006 22.7605 50.0006 19.9993V18.3325H53.3342V19.9993C53.3287 24.5994 49.6009 28.3267 45.0008 28.3322Z" fill="#0A194C"/>
<path d="M58.3334 28.3322C53.7334 28.3267 50.0055 24.5994 50 19.9993V18.3325H53.3336V19.9993C53.3336 22.7605 55.5717 24.9992 58.3334 24.9992C61.0946 24.9992 63.3333 22.7605 63.3333 19.9993V18.3325H66.6663V19.9993C66.6608 24.5994 62.9329 28.3267 58.3334 28.3322Z" fill="#0A194C"/>
<path d="M61.666 24.999H64.999V29.9989H61.666V24.999Z" fill="#0A194C"/>
<path d="M23.3356 54.9978H20.002V33.3317C20.002 32.4114 20.7484 31.6655 21.6688 31.6655H38.3351C39.2554 31.6655 40.0013 32.4114 40.0013 33.3317V49.998H36.6682V34.9985H23.3356V54.9978Z" fill="#27DB9B"/>
<path d="M63.3354 56.6649C62.8929 56.6649 62.4693 56.4892 62.1569 56.1767L53.3358 47.355L51.1807 49.51C50.704 49.9867 49.9875 50.1289 49.3643 49.8714C48.7418 49.6132 48.3359 49.0059 48.3359 48.3315V34.9988C48.3359 34.0785 49.0818 33.332 50.0021 33.332H63.3354C64.0092 33.3326 64.6165 33.7385 64.8747 34.361C65.1322 34.9836 64.99 35.7007 64.5133 36.1774L62.3583 38.3319L71.18 47.1536C71.8306 47.8042 71.8306 48.8594 71.18 49.51L64.5133 56.1767C64.2009 56.4892 63.7773 56.6649 63.3354 56.6649ZM53.3358 43.3317C53.7776 43.3317 54.2012 43.5075 54.5137 43.8199L63.3354 52.6417L67.6449 48.3315L58.8238 39.5104C58.1732 38.8598 58.1732 37.8045 58.8238 37.1539L59.3121 36.6657H51.6689V44.3088L52.1572 43.8199C52.4697 43.5075 52.8933 43.3317 53.3358 43.3317Z" fill="#0A194C"/>
<path d="M6.66797 53.3315H56.6662V56.6652H6.66797V53.3315Z" fill="#0A194C"/>
</g>
<defs>
<clipPath id="clip0">
<rect width="80" height="80" fill="white"/>
</clipPath>
</defs>
</svg>
