<svg width="80" height="80" viewBox="0 0 80 80" fill="none" xmlns="http://www.w3.org/2000/svg">
<g clip-path="url(#clip0)">
<path d="M15 20.0001H10V16.667H15C15.9204 16.667 16.6669 15.9205 16.6669 15.0001V1.66699H20V15.0001C20 17.7614 17.7612 20.0001 15 20.0001Z" fill="#0A194C"/>
<path d="M23.3331 80H5C2.23877 80 0 77.7612 0 75V18.3331C0 17.8912 0.175781 17.4677 0.488281 17.1552L17.1552 0.488281C17.4677 0.175781 17.8912 0 18.3331 0H55C57.7612 0 60 2.23877 60 5H56.6669C56.6669 4.07959 55.9204 3.33313 55 3.33313H19.0234L3.33313 19.0234V75C3.33313 75.9204 4.07959 76.6669 5 76.6669H23.3331C26.095 76.6669 28.3331 74.4281 28.3331 71.6669V63.3331H31.6669V71.6669C31.6614 76.2665 27.9333 79.9945 23.3331 80Z" fill="#27DB9B"/>
<path d="M49.1855 51.5442L51.5427 49.187L73.2017 70.8459L70.8445 73.2031L49.1855 51.5442Z" fill="#27DB9B"/>
<path d="M67.2363 74.4561L74.4562 67.2368L76.8134 69.5934L69.5935 76.8132L67.2363 74.4561Z" fill="#0A194C"/>
<path d="M73.2282 80.0001C71.4326 80.0031 69.7089 79.2908 68.44 78.0201L41.9684 51.5449C41.3178 50.8942 41.3178 49.8389 41.9684 49.1883L49.1883 41.9684C49.8389 41.3178 50.8942 41.3178 51.5449 41.9684L78.017 68.44C80.6568 71.0865 80.6568 75.3705 78.017 78.017C76.7481 79.2884 75.0251 80.0025 73.2282 80.0001ZM45.4999 50.3669L70.7966 75.6666C72.1418 77.0118 74.322 77.0118 75.6666 75.6666C77.0118 74.322 77.0118 72.1418 75.6666 70.7966L50.3669 45.4999L45.4999 50.3669Z" fill="#0A194C"/>
<path d="M41.4997 50.645L40.0196 41.945C39.9293 41.4128 40.1026 40.8696 40.4841 40.4881C40.8661 40.106 41.4088 39.9327 41.941 40.023L50.6409 41.5031L50.0831 44.7899L43.6994 43.7034L44.7858 50.0865L41.4997 50.645Z" fill="#0A194C"/>
<path d="M25 50H35V53.3331H25V50Z" fill="#0A194C"/>
<path d="M28.334 38.333H31.6677V51.6667H28.334V38.333Z" fill="#0A194C"/>
<path d="M31.6652 60H28.3315C25.5703 60 23.3315 57.7612 23.3315 55V48.4314C16.7031 45.1428 13.4633 37.5122 15.7003 30.4596C17.9378 23.4064 24.9837 19.0381 32.2957 20.1715C39.6077 21.3049 45.0008 27.6007 44.9984 35H41.6652C41.6677 29.1321 37.3122 24.1754 31.4925 23.4241C25.6734 22.6727 20.201 26.3599 18.713 32.0361C17.2249 37.7118 20.1839 43.6096 25.6234 45.8099C26.2526 46.0644 26.6652 46.676 26.6652 47.3547V55C26.6652 55.9204 27.4111 56.6669 28.3315 56.6669H31.6652C32.5856 56.6669 33.3315 55.9204 33.3315 55V46.6669H36.6652V55C36.6652 57.7612 34.4265 60 31.6652 60Z" fill="#27DB9B"/>
<path d="M55.0009 80.0001H33.334V76.667H55.0009C55.9213 76.667 56.6677 75.9205 56.6677 75.0001V71.667H60.0009V75.0001C60.0009 77.7614 57.7621 80.0001 55.0009 80.0001Z" fill="#0A194C"/>
<path d="M71.666 24.9999H54.9991C50.3965 24.9999 46.666 21.2688 46.666 16.6667C46.666 12.0641 50.3965 8.33301 54.9991 8.33301H71.666C76.2681 8.33301 79.9991 12.0641 79.9991 16.6667C79.9991 21.2688 76.2681 24.9999 71.666 24.9999ZM54.9991 11.6667C52.2379 11.6667 49.9991 13.9049 49.9991 16.6667C49.9991 19.428 52.2379 21.6667 54.9991 21.6667H71.666C74.4272 21.6667 76.666 19.428 76.666 16.6667C76.666 13.9049 74.4272 11.6667 71.666 11.6667H54.9991Z" fill="#0A194C"/>
<path d="M60 15H73.3331V18.3331H60V15Z" fill="#27DB9B"/>
<path d="M53.334 15H56.6677V18.3331H53.334V15Z" fill="#27DB9B"/>
<path d="M51.1794 37.8447L48.8223 35.4882L56.6677 27.6433V23.333H60.0009V28.333C60.0009 28.7749 59.8251 29.1991 59.5126 29.5116L51.1794 37.8447Z" fill="#0A194C"/>
<path d="M30 41.667C27.2388 41.667 25 39.4282 25 36.667C25 33.9052 27.2388 31.667 30 31.667C32.7612 31.667 35 33.9052 35 36.667C35 39.4282 32.7612 41.667 30 41.667ZM30 35.0001C29.0796 35.0001 28.3331 35.7466 28.3331 36.667C28.3331 37.5874 29.0796 38.3333 30 38.3333C30.9204 38.3333 31.6669 37.5874 31.6669 36.667C31.6669 35.7466 30.9204 35.0001 30 35.0001Z" fill="#27DB9B"/>
</g>
<defs>
<clipPath id="clip0">
<rect width="80" height="80" fill="white"/>
</clipPath>
</defs>
</svg>
