<svg width="80" height="80" viewBox="0 0 80 80" fill="none" xmlns="http://www.w3.org/2000/svg">
<g clip-path="url(#clip0)">
<path d="M31.666 71.667H34.9991V78.3333H31.666V71.667Z" fill="#0A194C"/>
<path d="M45 71.667H48.3331V78.3333H45V71.667Z" fill="#0A194C"/>
<path d="M6.66602 71.667H9.99915V78.3333H6.66602V71.667Z" fill="#0A194C"/>
<path d="M70 71.667H73.3331V78.3333H70V71.667Z" fill="#0A194C"/>
<path d="M21.6669 80.0001H1.66687C0.74646 80.0001 0 79.2537 0 78.3333V65.0001C0.00549316 60.3999 3.73352 56.6725 8.33313 56.667H21.6669V60.0001H8.33313C5.5719 60.0001 3.33313 62.2389 3.33313 65.0001V76.667H21.6669V80.0001Z" fill="#27DB9B"/>
<path d="M14.9991 56.6669C10.3965 56.6669 6.66602 52.9358 6.66602 48.3331C6.66602 43.7311 10.3965 40 14.9991 40C19.6018 40 23.3323 43.7311 23.3323 48.3331C23.3268 52.9333 19.5994 56.6614 14.9991 56.6669ZM14.9991 43.3331C12.2379 43.3331 9.99915 45.5719 9.99915 48.3331C9.99915 51.095 12.2379 53.3331 14.9991 53.3331C17.7604 53.3331 19.9991 51.095 19.9991 48.3331C19.9991 45.5719 17.7604 43.3331 14.9991 43.3331Z" fill="#0A194C"/>
<path d="M78.334 80.0001H58.334V76.667H76.6677V65.0001C76.6677 62.2389 74.429 60.0001 71.6677 60.0001H58.334V56.667H71.6677C76.2673 56.6725 79.9954 60.3999 80.0009 65.0001V78.3333C80.0009 79.2537 79.2544 80.0001 78.334 80.0001Z" fill="#27DB9B"/>
<path d="M64.9991 56.6669C60.3965 56.6669 56.666 52.9358 56.666 48.3331C56.666 43.7311 60.3965 40 64.9991 40C69.6018 40 73.3323 43.7311 73.3323 48.3331C73.3268 52.9333 69.5994 56.6614 64.9991 56.6669ZM64.9991 43.3331C62.2379 43.3331 59.9991 45.5719 59.9991 48.3331C59.9991 51.095 62.2379 53.3331 64.9991 53.3331C67.7604 53.3331 69.9991 51.095 69.9991 48.3331C69.9991 45.5719 67.7604 43.3331 64.9991 43.3331Z" fill="#0A194C"/>
<path d="M53.3331 80.0001H26.6669C25.7465 80.0001 25 79.2537 25 78.3333V65.0001C25.0055 60.3999 28.7335 56.6725 33.3331 56.667H46.6669C51.2665 56.6725 54.9945 60.3999 55 65.0001V78.3333C55 79.2537 54.2535 80.0001 53.3331 80.0001ZM28.3331 76.667H51.6669V65.0001C51.6669 62.2389 49.4281 60.0001 46.6669 60.0001H33.3331C30.5719 60.0001 28.3331 62.2389 28.3331 65.0001V76.667Z" fill="#27DB9B"/>
<path d="M39.9991 56.6669C35.3965 56.6669 31.666 52.9358 31.666 48.3331C31.666 43.7311 35.3965 40 39.9991 40C44.6018 40 48.3323 43.7311 48.3323 48.3331C48.3268 52.9333 44.5994 56.6614 39.9991 56.6669ZM39.9991 43.3331C37.2379 43.3331 34.9991 45.5719 34.9991 48.3331C34.9991 51.095 37.2379 53.3331 39.9991 53.3331C42.7604 53.3331 44.9991 51.095 44.9991 48.3331C44.9991 45.5719 42.7604 43.3331 39.9991 43.3331Z" fill="#0A194C"/>
<path d="M45.0009 36.667H35.0009C34.0804 36.667 33.334 35.9205 33.334 35.0001V26.667H36.6677V33.3333H43.334V26.667H46.6677V35.0001C46.6677 35.9205 45.9213 36.667 45.0009 36.667Z" fill="#0A194C"/>
<path d="M38.334 18.333H41.6677V28.333H38.334V18.333Z" fill="#0A194C"/>
<path d="M40 20C37.2388 20 35 17.7612 35 15C35 12.2388 37.2388 10 40 10C42.7612 10 45 12.2388 45 15C45 17.7612 42.7612 20 40 20ZM40 13.3331C39.0796 13.3331 38.3331 14.0796 38.3331 15C38.3331 15.9204 39.0796 16.6669 40 16.6669C40.9204 16.6669 41.6669 15.9204 41.6669 15C41.6669 14.0796 40.9204 13.3331 40 13.3331Z" fill="#27DB9B"/>
<path d="M66.6669 36.6667H63.3331V33.333C63.3331 32.4126 62.5873 31.6667 61.6669 31.6667H50V28.333H61.6669C64.4281 28.333 66.6669 30.5718 66.6669 33.333V36.6667Z" fill="#0A194C"/>
<path d="M16.6677 36.6667H13.334V33.333C13.334 30.5718 15.5728 28.333 18.334 28.333H30.0009V31.6667H18.334C17.4136 31.6667 16.6677 32.4126 16.6677 33.333V36.6667Z" fill="#0A194C"/>
<path d="M40 30C31.7157 30 25 23.2843 25 15C25 6.7157 31.7157 0 40 0C48.2843 0 55 6.7157 55 15C54.9908 23.2806 48.2806 29.9908 40 30ZM40 3.33313C33.5565 3.33313 28.3331 8.55652 28.3331 15C28.3331 21.4435 33.5565 26.6669 40 26.6669C46.4435 26.6669 51.6669 21.4435 51.6669 15C51.6595 8.55957 46.4404 3.34045 40 3.33313Z" fill="#27DB9B"/>
</g>
<defs>
<clipPath id="clip0">
<rect width="80" height="80" fill="white"/>
</clipPath>
</defs>
</svg>
