<svg width="80" height="80" viewBox="0 0 80 80" fill="none" xmlns="http://www.w3.org/2000/svg">
<path d="M25.0546 79.997L25.043 76.664C25.945 76.7244 26.8294 76.393 27.4696 75.7546C28.1105 75.1162 28.4449 74.2331 28.3876 73.3304V64.9976H31.7206V73.3304C31.7737 75.1144 31.0883 76.8404 29.8261 78.1026C28.5646 79.3641 26.8379 80.0495 25.0546 79.997Z" fill="#0A194C"/>
<path d="M55.0522 79.997C53.2683 80.0495 51.5422 79.3641 50.2801 78.1026C49.0185 76.8404 48.3331 75.1144 48.3856 73.3304V64.9976H51.7186V73.3304C51.6606 74.2312 51.9933 75.1132 52.6317 75.751C53.2695 76.3894 54.1514 76.722 55.0522 76.664V79.997Z" fill="#0A194C"/>
<path d="M21.7207 76.6641H58.3863V79.9971H21.7207V76.6641Z" fill="#0A194C"/>
<path d="M20.0543 23.3323H16.7207C16.7329 12.292 25.6797 3.34521 36.72 3.33301V6.66663C27.5199 6.6764 20.0641 14.1322 20.0543 23.3323Z" fill="#27DB9B"/>
<path d="M63.386 23.3323H60.053C60.0426 14.1322 52.5868 6.6764 43.3867 6.66663V3.33301C54.427 3.34521 63.3738 12.292 63.386 23.3323Z" fill="#27DB9B"/>
<path d="M46.7202 59.9975H33.3875C32.4671 59.9975 31.7207 59.2511 31.7207 58.3307V49.9979C31.7207 49.0775 32.4671 48.3311 33.3875 48.3311H46.7202C47.6405 48.3311 48.387 49.0775 48.387 49.9979V58.3307C48.387 59.2511 47.6405 59.9975 46.7202 59.9975ZM35.0543 56.6645H45.054V51.6647H35.0543V56.6645Z" fill="#0A194C"/>
<path d="M40.0526 44.9982C37.2908 44.9982 35.0527 42.7595 35.0527 39.9984C35.0527 37.2372 37.2908 34.9985 40.0526 34.9985C42.8137 34.9985 45.0524 37.2372 45.0524 39.9984C45.0524 42.7595 42.8137 44.9982 40.0526 44.9982ZM40.0526 38.3315C39.1322 38.3315 38.3857 39.078 38.3857 39.9984C38.3857 40.9187 39.1322 41.6652 40.0526 41.6652C40.9729 41.6652 41.7188 40.9187 41.7188 39.9984C41.7188 39.078 40.9729 38.3315 40.0526 38.3315Z" fill="#27DB9B"/>
<path d="M38.3867 14.9995H41.7197V36.6656H38.3867V14.9995Z" fill="#27DB9B"/>
<path d="M43.3856 9.99965H36.7189C35.7986 9.99965 35.0527 9.25321 35.0527 8.33284V1.66681C35.0527 0.746434 35.7986 0 36.7189 0H43.3856C44.306 0 45.0524 0.746434 45.0524 1.66681V8.33284C45.0524 9.25321 44.306 9.99965 43.3856 9.99965ZM38.3857 6.66664H41.7188V3.33301H38.3857V6.66664Z" fill="#0A194C"/>
<path d="M21.7196 31.6657H15.0535C14.1332 31.6657 13.3867 30.9192 13.3867 29.9989V23.3322C13.3867 22.4118 14.1332 21.666 15.0535 21.666H21.7196C22.6399 21.666 23.3864 22.4118 23.3864 23.3322V29.9989C23.3864 30.9192 22.6399 31.6657 21.7196 31.6657ZM16.7197 28.332H20.0534V24.999H16.7197V28.332Z" fill="#0A194C"/>
<path d="M65.0522 31.6657H58.3856C57.4652 31.6657 56.7188 30.9192 56.7188 29.9989V23.3322C56.7188 22.4118 57.4652 21.666 58.3856 21.666H65.0522C65.9726 21.666 66.7184 22.4118 66.7184 23.3322V29.9989C66.7184 30.9192 65.9726 31.6657 65.0522 31.6657ZM60.0524 28.332H63.3854V24.999H60.0524V28.332Z" fill="#0A194C"/>
<path d="M48.3864 49.9981H45.0534C45.0534 42.845 48.9833 39.772 52.3615 38.7515L40.0536 18.2377L27.5669 39.05C32.1053 40.776 35.0916 45.1429 35.0538 49.9981H31.7202C31.7202 43.1099 25.012 41.6903 24.7209 41.6317C24.1869 41.5261 23.7377 41.1666 23.5185 40.6686C23.2988 40.1706 23.3367 39.5968 23.6192 39.1318L38.6187 14.1327C38.9416 13.6621 39.4762 13.3813 40.0469 13.3813C40.6175 13.3813 41.1516 13.6621 41.4751 14.1327L56.4745 39.1318C56.7876 39.6463 56.7986 40.289 56.5044 40.8138C56.2097 41.3393 55.6549 41.6646 55.0531 41.6653C54.386 41.6732 48.3864 41.9832 48.3864 49.9981Z" fill="#0A194C"/>
<path d="M51.7188 49.998H71.7181V53.3311H51.7188V49.998Z" fill="#0A194C"/>
<path d="M8.38672 49.998H28.386V53.3311H8.38672V49.998Z" fill="#0A194C"/>
<path d="M74 67H5.99998C2.68652 67 0 64.7333 0 61.9375V18.0625C0 15.2667 2.68652 13 5.99998 13H10.0005V16.3754H5.99998C4.89549 16.3754 4.00048 17.1306 4.00048 18.0625V61.9375C4.00048 62.8694 4.89549 63.6246 5.99998 63.6246H74C75.1045 63.6246 76.0003 62.8694 76.0003 61.9375V18.0625C76.0003 17.1306 75.1045 16.3754 74 16.3754H70.0003V13H74C77.3135 13 80 15.2667 80 18.0625V61.9375C80 64.7333 77.3135 67 74 67V67Z" fill="#27DB9B"/>
</svg>
